<svg xmlns="http://www.w3.org/2000/svg" width="400" height="400" viewBox="0 0 400 400"><defs><filter id="shadow" width="140%" height="140%" x="-20%" y="-20%"><feDropShadow dx="2" dy="4" flood-opacity=".3" stdDeviation="3"/></filter><filter id="glow" width="200%" height="200%" x="-50%" y="-50%"><feGaussianBlur result="blur" stdDeviation="8"/><feMerge><feMergeNode in="blur"/><feMergeNode in="SourceGraphic"/></feMerge></filter><linearGradient id="rainbow-body" x1="0%" x2="100%" y1="0%" y2="100%"><stop offset="0%" stop-color="#FF6B6B"/><stop offset="25%" stop-color="#FFE66D"/><stop offset="50%" stop-color="#4ECDC4"/><stop offset="75%" stop-color="#45B7D1"/><stop offset="100%" stop-color="plum"/></linearGradient><radialGradient id="galaxy-body" cx="30%" cy="30%"><stop offset="0%" stop-color="#E6E6FA"/><stop offset="50%" stop-color="#9370DB"/><stop offset="100%" stop-color="#1A0033"/></radialGradient><linearGradient id="holo-body" x1="0%" x2="100%" y1="0%" y2="100%"><stop offset="0%" stop-color="#F0F"/><stop offset="50%" stop-color="#0FF"/><stop offset="100%" stop-color="#FF0"/></linearGradient><linearGradient id="sky-gradient" x1="0%" x2="0%" y1="0%" y2="100%"><stop offset="0%" stop-color="#87CEEB"/><stop offset="100%" stop-color="#E0F4FF"/></linearGradient><linearGradient id="grass-gradient" x1="0%" x2="0%" y1="0%" y2="100%"><stop offset="0%" stop-color="#90EE90"/><stop offset="100%" stop-color="#228B22"/></linearGradient><linearGradient id="sunset-gradient" x1="0%" x2="0%" y1="0%" y2="100%"><stop offset="0%" stop-color="#FF6B6B"/><stop offset="50%" stop-color="#FFE66D"/><stop offset="100%" stop-color="#4ECDC4"/></linearGradient><linearGradient id="aurora-gradient" x1="0%" x2="100%" y1="0%" y2="100%"><stop offset="0%" stop-color="#0D1B2A"/><stop offset="30%" stop-color="#00FF7F"/><stop offset="70%" stop-color="#F0F"/><stop offset="100%" stop-color="#0D1B2A"/></linearGradient><radialGradient id="multiverse-gradient" cx="50%" cy="50%"><stop offset="0%" stop-color="gold"/><stop offset="40%" stop-color="#F0F"/><stop offset="70%" stop-color="#0FF"/><stop offset="100%" stop-color="#000"/></radialGradient><linearGradient id="rift-gradient" x1="0%" x2="100%" y1="0%" y2="100%"><stop offset="0%" stop-color="#000"/><stop offset="30%" stop-color="#9400D3"/><stop offset="50%" stop-color="#0FF"/><stop offset="70%" stop-color="#9400D3"/><stop offset="100%" stop-color="#000"/></linearGradient><linearGradient id="heaven-gradient" x1="0%" x2="0%" y1="0%" y2="100%"><stop offset="0%" stop-color="#FFF"/><stop offset="50%" stop-color="gold" stop-opacity=".3"/><stop offset="100%" stop-color="#F0F8FF"/></linearGradient><clipPath id="head-clip"><ellipse cx="200" cy="200" rx="110" ry="115"/></clipPath></defs><rect width="400" height="400" fill="#2C3E50"/><rect width="50" height="75" x="0" y="325" fill="#1A202C"/><rect width="6" height="8" x="8" y="335" fill="gold" opacity=".6"/><rect width="6" height="8" x="22" y="335" fill="gold" opacity=".6"/><rect width="6" height="8" x="8" y="353" fill="gold" opacity=".6"/><rect width="6" height="8" x="22" y="353" fill="gold" opacity=".6"/><rect width="6" height="8" x="8" y="371" fill="gold" opacity=".6"/><rect width="6" height="8" x="22" y="371" fill="gold" opacity=".6"/><rect width="6" height="8" x="8" y="389" fill="gold" opacity=".6"/><rect width="6" height="8" x="22" y="389" fill="gold" opacity=".6"/><rect width="50" height="80" x="60" y="320" fill="#1A202C"/><rect width="6" height="8" x="82" y="330" fill="gold" opacity=".6"/><rect width="6" height="8" x="96" y="330" fill="gold" opacity=".6"/><rect width="6" height="8" x="82" y="348" fill="gold" opacity=".6"/><rect width="6" height="8" x="96" y="348" fill="gold" opacity=".6"/><rect width="6" height="8" x="82" y="366" fill="gold" opacity=".6"/><rect width="6" height="8" x="96" y="366" fill="gold" opacity=".6"/><rect width="6" height="8" x="82" y="384" fill="gold" opacity=".6"/><rect width="6" height="8" x="96" y="384" fill="gold" opacity=".6"/><rect width="50" height="85" x="120" y="315" fill="#1A202C"/><rect width="6" height="8" x="128" y="325" fill="gold" opacity=".6"/><rect width="6" height="8" x="156" y="325" fill="gold" opacity=".6"/><rect width="6" height="8" x="128" y="343" fill="gold" opacity=".6"/><rect width="6" height="8" x="156" y="343" fill="gold" opacity=".6"/><rect width="6" height="8" x="128" y="361" fill="gold" opacity=".6"/><rect width="6" height="8" x="156" y="361" fill="gold" opacity=".6"/><rect width="6" height="8" x="128" y="379" fill="gold" opacity=".6"/><rect width="6" height="8" x="156" y="379" fill="gold" opacity=".6"/><rect width="50" height="90" x="180" y="310" fill="#1A202C"/><rect width="6" height="8" x="188" y="320" fill="gold" opacity=".6"/><rect width="6" height="8" x="202" y="320" fill="gold" opacity=".6"/><rect width="6" height="8" x="188" y="338" fill="gold" opacity=".6"/><rect width="6" height="8" x="202" y="338" fill="gold" opacity=".6"/><rect width="6" height="8" x="188" y="356" fill="gold" opacity=".6"/><rect width="6" height="8" x="202" y="356" fill="gold" opacity=".6"/><rect width="6" height="8" x="188" y="374" fill="gold" opacity=".6"/><rect width="6" height="8" x="202" y="374" fill="gold" opacity=".6"/><rect width="50" height="95" x="240" y="305" fill="#1A202C"/><rect width="6" height="8" x="262" y="315" fill="gold" opacity=".6"/><rect width="6" height="8" x="276" y="315" fill="gold" opacity=".6"/><rect width="6" height="8" x="262" y="333" fill="gold" opacity=".6"/><rect width="6" height="8" x="276" y="333" fill="gold" opacity=".6"/><rect width="6" height="8" x="262" y="351" fill="gold" opacity=".6"/><rect width="6" height="8" x="276" y="351" fill="gold" opacity=".6"/><rect width="6" height="8" x="262" y="369" fill="gold" opacity=".6"/><rect width="6" height="8" x="276" y="369" fill="gold" opacity=".6"/><rect width="6" height="8" x="262" y="387" fill="gold" opacity=".6"/><rect width="6" height="8" x="276" y="387" fill="gold" opacity=".6"/><rect width="50" height="100" x="300" y="300" fill="#1A202C"/><rect width="6" height="8" x="308" y="310" fill="gold" opacity=".6"/><rect width="6" height="8" x="336" y="310" fill="gold" opacity=".6"/><rect width="6" height="8" x="308" y="328" fill="gold" opacity=".6"/><rect width="6" height="8" x="336" y="328" fill="gold" opacity=".6"/><rect width="6" height="8" x="308" y="346" fill="gold" opacity=".6"/><rect width="6" height="8" x="336" y="346" fill="gold" opacity=".6"/><rect width="6" height="8" x="308" y="364" fill="gold" opacity=".6"/><rect width="6" height="8" x="336" y="364" fill="gold" opacity=".6"/><rect width="6" height="8" x="308" y="382" fill="gold" opacity=".6"/><rect width="6" height="8" x="336" y="382" fill="gold" opacity=".6"/><rect width="50" height="105" x="360" y="295" fill="#1A202C"/><rect width="6" height="8" x="368" y="305" fill="gold" opacity=".6"/><rect width="6" height="8" x="382" y="305" fill="gold" opacity=".6"/><rect width="6" height="8" x="368" y="323" fill="gold" opacity=".6"/><rect width="6" height="8" x="382" y="323" fill="gold" opacity=".6"/><rect width="6" height="8" x="368" y="341" fill="gold" opacity=".6"/><rect width="6" height="8" x="382" y="341" fill="gold" opacity=".6"/><rect width="6" height="8" x="368" y="359" fill="gold" opacity=".6"/><rect width="6" height="8" x="382" y="359" fill="gold" opacity=".6"/><rect width="6" height="8" x="368" y="377" fill="gold" opacity=".6"/><rect width="6" height="8" x="382" y="377" fill="gold" opacity=".6"/><ellipse cx="115" cy="140" fill="gray" filter="url(#shadow)" rx="45" ry="50"/><ellipse cx="115" cy="140" fill="#FFB6C1" rx="30" ry="35"/><ellipse cx="115" cy="145" fill="#F99" rx="18" ry="22"/><ellipse cx="285" cy="140" fill="gray" filter="url(#shadow)" rx="45" ry="50"/><ellipse cx="285" cy="140" fill="#FFB6C1" rx="30" ry="35"/><ellipse cx="285" cy="145" fill="#F99" rx="18" ry="22"/><ellipse cx="200" cy="200" fill="gray" filter="url(#shadow)" rx="110" ry="115"/><ellipse cx="180" cy="140" fill="#A0A0A0" opacity=".3" rx="50" ry="30"/><g clip-path="url(#head-clip)"><text x="125" y="125" fill="#00CED1" font-size="18" opacity=".35">◆</text><text x="270" y="160" fill="#00CED1" font-size="18" opacity=".35">◆</text><text x="265" y="195" fill="#00CED1" font-size="18" opacity=".35">◆</text><text x="260" y="230" fill="#00CED1" font-size="18" opacity=".35">◆</text><text x="255" y="265" fill="#00CED1" font-size="18" opacity=".35">◆</text><text x="250" y="150" fill="#00CED1" font-size="18" opacity=".35">◆</text><text x="245" y="185" fill="#00CED1" font-size="18" opacity=".35">◆</text><text x="240" y="220" fill="#00CED1" font-size="18" opacity=".35">◆</text></g><ellipse cx="200" cy="235" fill="#FFDAB9" rx="70" ry="60"/><ellipse cx="200" cy="250" fill="#DEB887" opacity=".3" rx="55" ry="40"/><ellipse cx="162" cy="185" fill="#000" opacity=".08" rx="22" ry="24"/><ellipse cx="238" cy="185" fill="#000" opacity=".08" rx="22" ry="24"/><ellipse cx="162" cy="185" fill="#fff" rx="18" ry="8"/><ellipse cx="162" cy="187" fill="#3D2314" rx="10" ry="5"/><ellipse cx="238" cy="185" fill="#fff" rx="18" ry="8"/><ellipse cx="238" cy="187" fill="#3D2314" rx="10" ry="5"/><g><ellipse cx="200" cy="230" fill="#8B4513" rx="25" ry="18"/><ellipse cx="200" cy="230" fill="sienna" rx="22" ry="15"/><ellipse cx="192" cy="230" fill="#5D2E0C" rx="5" ry="7"/><ellipse cx="208" cy="230" fill="#5D2E0C" rx="5" ry="7"/></g><line x1="182" x2="218" y1="260" y2="260" stroke="#5D2E0C" stroke-width="2"/><ellipse cx="130" cy="130" fill="#FF69B4" rx="20" ry="15"/><ellipse cx="130" cy="130" fill="#FF1493" rx="8" ry="8"/><polygon fill="#FF69B4" points="130 115 145 130 130 145"/><circle cx="200" cy="200" r="135" fill="none" stroke="gold" stroke-width="6" opacity=".25"/><g transform="translate(325, 15)"><rect width="65" height="22" fill="#A0A0A0" opacity=".9" rx="4"/><text x="32" y="15" fill="#FFF" font-family="sans-serif" font-size="8" font-weight="bold" text-anchor="middle">COMMON</text></g><g transform="translate(10, 15)"><rect width="45" height="22" fill="#333" opacity=".8" rx="4"/><text x="22" y="15" fill="#FFF" font-family="sans-serif" font-size="9" text-anchor="middle">Gen 1</text></g></svg>